<svg 
 xmlns="http://www.w3.org/2000/svg"
 xmlns:xlink="http://www.w3.org/1999/xlink"
 width="17px" height="8px">
<path fill-rule="evenodd"  fill="rgb(255, 255, 255)"
 d="M16.320,3.060 L13.419,0.164 C13.180,-0.075 12.792,-0.075 12.552,0.164 C12.313,0.403 12.313,0.790 12.552,1.029 L14.418,2.892 L0.612,2.892 C0.273,2.892 -0.001,3.166 -0.001,3.504 C-0.001,3.841 0.273,4.115 0.612,4.115 L14.418,4.115 L12.552,5.978 C12.313,6.217 12.313,6.604 12.552,6.843 C12.672,6.963 12.829,7.022 12.986,7.022 C13.143,7.022 13.299,6.963 13.419,6.843 L16.320,3.947 C16.442,3.825 16.502,3.664 16.499,3.504 C16.502,3.343 16.442,3.182 16.320,3.060 Z"/>
</svg>