<svg 
 xmlns="http://www.w3.org/2000/svg"
 xmlns:xlink="http://www.w3.org/1999/xlink"
 width="25px" height="36px">
<path fill-rule="evenodd"  fill="rgb(237, 61, 80)"
 d="M24.264,12.821 C24.264,6.109 18.833,0.669 12.132,0.669 C5.431,0.669 -0.000,6.109 -0.000,12.821 C-0.000,14.931 0.538,16.916 1.483,18.645 L1.453,18.646 L12.027,35.232 L22.832,18.552 L22.832,18.552 C23.745,16.844 24.264,14.893 24.264,12.821 ZM12.132,21.127 C7.514,21.127 3.770,17.377 3.770,12.751 C3.770,8.126 7.514,4.376 12.132,4.376 C16.750,4.376 20.494,8.126 20.494,12.751 C20.494,17.377 16.750,21.127 12.132,21.127 Z"/>
</svg>