<svg 
 xmlns="http://www.w3.org/2000/svg"
 xmlns:xlink="http://www.w3.org/1999/xlink"
 width="184px" height="9px">
<path fill-rule="evenodd"  fill="rgb(255, 255, 255)"
 d="M183.981,4.500 L184.000,4.480 L179.842,0.177 C179.735,0.063 179.593,0.000 179.441,0.000 C179.290,0.000 179.148,0.063 179.041,0.177 L179.024,0.196 C178.917,0.310 178.858,0.462 178.858,0.623 C178.858,0.785 178.917,0.936 179.024,1.051 L181.804,3.883 L0.566,3.883 C0.254,3.883 0.000,4.154 0.000,4.488 L0.000,4.513 C0.000,4.846 0.254,5.117 0.566,5.117 L181.804,5.117 L179.024,7.950 C178.917,8.064 178.858,8.216 178.858,8.377 C178.858,8.538 178.917,8.690 179.024,8.805 L179.041,8.823 C179.148,8.937 179.290,9.000 179.441,9.000 C179.593,9.000 179.735,8.937 179.842,8.823 L184.000,4.520 L183.981,4.500 Z"/>
</svg>