<svg 
 xmlns="http://www.w3.org/2000/svg"
 xmlns:xlink="http://www.w3.org/1999/xlink"
 width="26px" height="27px">
<path fill-rule="evenodd"  fill="rgb(237, 61, 80)"
 d="M22.010,17.068 C21.293,16.327 20.132,16.327 19.416,17.068 L18.120,18.411 C17.405,19.152 16.245,19.152 15.529,18.413 C15.529,18.412 15.528,18.412 15.528,18.411 L7.750,10.358 C7.035,9.616 7.035,8.415 7.750,7.673 L9.046,6.330 C9.763,5.590 9.763,4.388 9.047,3.647 C9.047,3.647 9.047,3.647 9.046,3.646 L6.454,0.960 C5.739,0.219 4.579,0.219 3.863,0.959 C3.862,0.959 3.862,0.959 3.862,0.960 L0.621,4.318 C0.262,4.688 0.076,5.400 0.229,5.900 C1.573,10.301 4.441,14.984 7.750,18.411 C11.058,21.836 15.581,24.807 19.832,26.197 C20.316,26.356 21.004,26.165 21.362,25.794 L24.602,22.438 C25.319,21.696 25.319,20.495 24.602,19.754 L22.010,17.068 Z"/>
</svg>