<svg xmlns="http://www.w3.org/2000/svg" width="21.96" height="22.031" viewBox="0 0 21.96 22.031">
  <defs>
    <style>
      .cls-1 {
        fill: #fff;
        fill-rule: evenodd;
      }
    </style>
  </defs>
  <path class="cls-1" d="M1667.02,63.2c-0.42,4.181-2.94,7.152-8.03,9.475-5.6-2.552-8.1-5.889-8.1-10.772V56.931c0.34,0.023.67,0.034,1.01,0.034a14.408,14.408,0,0,0,7.09-1.807,14.264,14.264,0,0,0,5.88,1.755l2-1.953c-0.26.016-.52,0.029-0.79,0.029a12.231,12.231,0,0,1-6.54-1.819l-0.55-.344-0.55.344a12.231,12.231,0,0,1-6.54,1.819,12.752,12.752,0,0,1-1.87-.137l-1.16-.175v7.229c0,7.63,5.54,10.937,9.71,12.76l0.41,0.182,0.42-.182c4.16-1.827,9.7-5.137,9.7-12.76V61.158Zm-7.96,4.97-5.76-4.515,1.26-1.542,4.36,3.407,10.49-10.245,1.43,1.4Z" transform="translate(-1648.88 -52.813)"/>
</svg>
