<svg xmlns="http://www.w3.org/2000/svg" width="25.69" height="30.844" viewBox="0 0 25.69 30.844">
  <defs>
    <style>
      .cls-1 {
        fill: #fff;
        fill-rule: evenodd;
      }
    </style>
  </defs>
  <path class="cls-1" d="M1045.43,978h12.84v-2.569h-12.84V978Zm6.42-30.832-0.4.006a12.928,12.928,0,0,0-12.44,12.885,12.768,12.768,0,0,0,5.21,10.278,2.764,2.764,0,0,1,1.21,2.206v1.6h12.83v-1.555a2.556,2.556,0,0,1,1.02-2.112A12.844,12.844,0,0,0,1051.85,947.168Zm5.94,21.216a5.007,5.007,0,0,0-2,3.193h-7.89a5.394,5.394,0,0,0-2.15-3.307,10.174,10.174,0,0,1-4.17-8.22,10.34,10.34,0,0,1,9.95-10.307l0.32-.006A10.269,10.269,0,0,1,1057.79,968.384Zm-1.91-11.673-4.05,4.035-4.07-4.041-3.4,5.172,2.14,1.414,1.68-2.552,3.66,3.631,3.64-3.635,1.72,2.56,2.13-1.432Z" transform="translate(-1039 -947.156)"/>
</svg>
