<svg xmlns="http://www.w3.org/2000/svg" width="51.625" height="47.37" viewBox="0 0 51.625 47.37">
  <defs>
    <style>
      .cls-1 {
        fill: #fff;
        fill-rule: evenodd;
      }
    </style>
  </defs>
  <path class="cls-1" d="M366.816,3850.99l-0.06-.77-0.08-.78-0.1-.75-0.14-.76-0.141-.75-0.18-.74-0.181-.73-0.22-.74-0.241-.71-0.261-.7-0.261-.7-0.3-.69-0.322-.66-0.321-.67-9.388,33.5,0.682-.43,0.662-.46,0.642-.48,0.642-.5,0.622-.49,0.6-.54,0.582-.56,0.582-.55,0.542-.6,0.541-.59,0.5-.62,0.5-.64,0.481-.63,0.441-.68,0.442-.67,0.4-.7,0.4-.69,0.361-.72,0.361-.73,0.321-.76,0.3-.76,0.281-.75,0.241-.8,0.22-.77,0.221-.81,0.161-.8,0.16-.83,0.121-.82,0.1-.83,0.08-.86,0.04-.85v-1.65Zm-3.27-10.99-0.441-.75-0.462-.72-0.5-.71-0.5-.7-0.542-.67-0.561-.66-0.582-.64-0.582-.61-0.621-.6-0.643-.57-0.662-.56-0.682-.54-0.7-.51-0.7-.5-0.742-.46-0.743-.46-0.762-.41-0.782-.38-0.783-.38-0.822-.34-0.823-.31-0.822-.28-0.863-.26-0.842-.24-0.883-.2-0.883-.18-0.883-.14-0.9-.11-0.923-.08-0.923-.04-0.923-.02,8.125,32.17,14.786-18.38Zm-24.435-12.97-0.923.08-0.9.11-0.883.14-0.883.18-0.883.2-0.862.24-0.843.26-0.822.28-0.823.31-0.822.34-0.783.38-0.782.38-0.763.41-0.742.46-0.742.46-0.7.5-0.7.51-0.683.54-0.661.56-0.642.57-0.622.6-0.6.61-0.562.64-0.562.66-0.541.67-0.5.7-0.5.71-0.462.72-0.441.75-0.421.76,14.785,18.38,8.125-32.17-0.923.02Zm-21.365,14.48-0.321.66-0.281.69-0.281.7-0.261.7-0.241.71-0.2.74-0.2.73-0.16.74-0.161.75-0.12.76-0.121.75-0.08.78-0.06.77-0.02.78-0.02.79,0.02,0.86,0.04,0.85,0.06,0.86,0.1,0.83,0.121,0.82,0.16,0.83,0.181,0.8,0.2,0.81,0.22,0.77,0.261,0.8,0.281,0.75,0.3,0.76,0.321,0.76,0.341,0.73,0.361,0.72,0.4,0.69,0.4,0.7,0.441,0.67,0.461,0.68,0.462,0.63,0.5,0.64,0.522,0.62,0.521,0.59,0.562,0.6,0.562,0.55,0.582,0.56,0.6,0.54,0.621,0.49,0.642,0.5,0.642,0.48,0.682,0.46,0.683,0.43-9.389-33.5Z" transform="translate(-315.219 -3826.97)"/>
</svg>
